<mxfile host="app.diagrams.net" agent="Mozilla/5.0 (Windows NT 10.0; Win64; x64) AppleWebKit/537.36 (KHTML, like Gecko) Chrome/130.0.0.0 Safari/537.36" version="24.8.1">
  <diagram id="prtHgNgQTEPvFCAcTncT" name="Page-1">
    <mxGraphModel dx="1235" dy="655" grid="0" gridSize="10" guides="1" tooltips="1" connect="1" arrows="1" fold="1" page="1" pageScale="1" pageWidth="827" pageHeight="1169" math="0" shadow="0">
      <root>
        <mxCell id="0" />
        <mxCell id="1" parent="0" />
        <mxCell id="qxzenrGqmtoBjBItyft_-2" value="Пользователь" style="shape=umlActor;verticalLabelPosition=bottom;verticalAlign=top;html=1;outlineConnect=0;" parent="1" vertex="1">
          <mxGeometry x="110" y="20" width="30" height="60" as="geometry" />
        </mxCell>
        <mxCell id="qxzenrGqmtoBjBItyft_-5" value="" style="endArrow=none;dashed=1;html=1;rounded=0;" parent="1" source="qxzenrGqmtoBjBItyft_-11" edge="1">
          <mxGeometry width="50" height="50" relative="1" as="geometry">
            <mxPoint x="120" y="570" as="sourcePoint" />
            <mxPoint x="120" y="110" as="targetPoint" />
          </mxGeometry>
        </mxCell>
        <mxCell id="qxzenrGqmtoBjBItyft_-6" value="Главное окно" style="rounded=0;whiteSpace=wrap;html=1;fillColor=#d5e8d4;strokeColor=#82b366;" parent="1" vertex="1">
          <mxGeometry x="240" y="70" width="90" height="40" as="geometry" />
        </mxCell>
        <mxCell id="qxzenrGqmtoBjBItyft_-7" value="Менеджер главного окна" style="rounded=0;whiteSpace=wrap;html=1;fillColor=#d5e8d4;strokeColor=#82b366;" parent="1" vertex="1">
          <mxGeometry x="380" y="70" width="90" height="40" as="geometry" />
        </mxCell>
        <mxCell id="qxzenrGqmtoBjBItyft_-9" value="" style="endArrow=none;dashed=1;html=1;rounded=0;" parent="1" source="qxzenrGqmtoBjBItyft_-14" edge="1">
          <mxGeometry width="50" height="50" relative="1" as="geometry">
            <mxPoint x="281" y="569" as="sourcePoint" />
            <mxPoint x="281" y="109" as="targetPoint" />
          </mxGeometry>
        </mxCell>
        <mxCell id="qxzenrGqmtoBjBItyft_-10" value="" style="endArrow=none;dashed=1;html=1;rounded=0;" parent="1" edge="1">
          <mxGeometry width="50" height="50" relative="1" as="geometry">
            <mxPoint x="425" y="203" as="sourcePoint" />
            <mxPoint x="424" y="110" as="targetPoint" />
          </mxGeometry>
        </mxCell>
        <mxCell id="qxzenrGqmtoBjBItyft_-12" value="" style="endArrow=none;dashed=1;html=1;rounded=0;" parent="1" target="qxzenrGqmtoBjBItyft_-11" edge="1">
          <mxGeometry width="50" height="50" relative="1" as="geometry">
            <mxPoint x="120.0444444444446" y="405" as="sourcePoint" />
            <mxPoint x="120" y="110" as="targetPoint" />
          </mxGeometry>
        </mxCell>
        <mxCell id="qxzenrGqmtoBjBItyft_-11" value="" style="rounded=0;whiteSpace=wrap;html=1;fillColor=#d5e8d4;strokeColor=#82b366;" parent="1" vertex="1">
          <mxGeometry x="116" y="180" width="10" height="20" as="geometry" />
        </mxCell>
        <mxCell id="qxzenrGqmtoBjBItyft_-13" value="" style="rounded=0;whiteSpace=wrap;html=1;fillColor=#d5e8d4;strokeColor=#82b366;" parent="1" vertex="1">
          <mxGeometry x="116" y="239" width="10" height="20" as="geometry" />
        </mxCell>
        <mxCell id="qxzenrGqmtoBjBItyft_-15" value="" style="endArrow=none;dashed=1;html=1;rounded=0;" parent="1" source="qxzenrGqmtoBjBItyft_-17" target="qxzenrGqmtoBjBItyft_-14" edge="1">
          <mxGeometry width="50" height="50" relative="1" as="geometry">
            <mxPoint x="281" y="362" as="sourcePoint" />
            <mxPoint x="281" y="109" as="targetPoint" />
          </mxGeometry>
        </mxCell>
        <mxCell id="qxzenrGqmtoBjBItyft_-14" value="" style="rounded=0;whiteSpace=wrap;html=1;fillColor=#d5e8d4;strokeColor=#82b366;" parent="1" vertex="1">
          <mxGeometry x="276" y="165" width="10" height="35" as="geometry" />
        </mxCell>
        <mxCell id="qxzenrGqmtoBjBItyft_-18" value="" style="endArrow=classic;html=1;rounded=0;exitX=1;exitY=0;exitDx=0;exitDy=0;entryX=0.088;entryY=0.414;entryDx=0;entryDy=0;entryPerimeter=0;" parent="1" source="qxzenrGqmtoBjBItyft_-11" target="qxzenrGqmtoBjBItyft_-14" edge="1">
          <mxGeometry width="50" height="50" relative="1" as="geometry">
            <mxPoint x="130" y="190" as="sourcePoint" />
            <mxPoint x="270" y="180" as="targetPoint" />
          </mxGeometry>
        </mxCell>
        <mxCell id="qxzenrGqmtoBjBItyft_-19" value="" style="endArrow=classic;html=1;rounded=0;exitX=1;exitY=0;exitDx=0;exitDy=0;entryX=0.088;entryY=0.414;entryDx=0;entryDy=0;entryPerimeter=0;" parent="1" edge="1">
          <mxGeometry width="50" height="50" relative="1" as="geometry">
            <mxPoint x="126" y="240" as="sourcePoint" />
            <mxPoint x="277" y="239" as="targetPoint" />
          </mxGeometry>
        </mxCell>
        <mxCell id="qxzenrGqmtoBjBItyft_-21" value="" style="endArrow=none;dashed=1;html=1;rounded=0;entryX=0.5;entryY=1;entryDx=0;entryDy=0;" parent="1" source="Fpr4uMqLx5bQpJI8vAxQ-9" target="qxzenrGqmtoBjBItyft_-20" edge="1">
          <mxGeometry width="50" height="50" relative="1" as="geometry">
            <mxPoint x="425" y="479" as="sourcePoint" />
            <mxPoint x="425" y="359" as="targetPoint" />
          </mxGeometry>
        </mxCell>
        <mxCell id="qxzenrGqmtoBjBItyft_-20" value="" style="rounded=0;whiteSpace=wrap;html=1;fillColor=#d5e8d4;strokeColor=#82b366;" parent="1" vertex="1">
          <mxGeometry x="420" y="210" width="10" height="80" as="geometry" />
        </mxCell>
        <mxCell id="qxzenrGqmtoBjBItyft_-29" value="Ввод характеристик&lt;div&gt;&lt;span style=&quot;background-color: initial;&quot;&gt;&amp;nbsp;автомобиля&lt;/span&gt;&lt;/div&gt;" style="text;html=1;align=center;verticalAlign=middle;resizable=0;points=[];autosize=1;strokeColor=none;fillColor=none;" parent="1" vertex="1">
          <mxGeometry x="130.5" y="139" width="129" height="41" as="geometry" />
        </mxCell>
        <mxCell id="qxzenrGqmtoBjBItyft_-30" value="Нажатие на кнопку&lt;div&gt;&quot;Поиск&quot;&lt;/div&gt;" style="text;html=1;align=center;verticalAlign=middle;resizable=0;points=[];autosize=1;strokeColor=none;fillColor=none;" parent="1" vertex="1">
          <mxGeometry x="134" y="204" width="123" height="41" as="geometry" />
        </mxCell>
        <mxCell id="qxzenrGqmtoBjBItyft_-35" value="Удаленная база данных" style="rounded=0;whiteSpace=wrap;html=1;fillColor=#d5e8d4;strokeColor=#82b366;" parent="1" vertex="1">
          <mxGeometry x="525" y="70" width="90" height="40" as="geometry" />
        </mxCell>
        <mxCell id="qxzenrGqmtoBjBItyft_-37" value="" style="endArrow=none;dashed=1;html=1;rounded=0;" parent="1" edge="1">
          <mxGeometry width="50" height="50" relative="1" as="geometry">
            <mxPoint x="572.7517730496454" y="163" as="sourcePoint" />
            <mxPoint x="572" y="110" as="targetPoint" />
          </mxGeometry>
        </mxCell>
        <mxCell id="qxzenrGqmtoBjBItyft_-50" value="" style="rounded=0;whiteSpace=wrap;html=1;fillColor=#d5e8d4;strokeColor=#82b366;" parent="1" vertex="1">
          <mxGeometry x="568" y="210" width="10" height="80" as="geometry" />
        </mxCell>
        <mxCell id="qxzenrGqmtoBjBItyft_-65" value="" style="endArrow=none;dashed=1;html=1;rounded=0;" parent="1" source="qxzenrGqmtoBjBItyft_-20" edge="1">
          <mxGeometry width="50" height="50" relative="1" as="geometry">
            <mxPoint x="425" y="210" as="sourcePoint" />
            <mxPoint x="425" y="198" as="targetPoint" />
          </mxGeometry>
        </mxCell>
        <mxCell id="Fpr4uMqLx5bQpJI8vAxQ-2" value="" style="endArrow=none;dashed=1;html=1;rounded=0;" edge="1" parent="1" source="qxzenrGqmtoBjBItyft_-50">
          <mxGeometry width="50" height="50" relative="1" as="geometry">
            <mxPoint x="573" y="211" as="sourcePoint" />
            <mxPoint x="573" y="163" as="targetPoint" />
          </mxGeometry>
        </mxCell>
        <mxCell id="Fpr4uMqLx5bQpJI8vAxQ-5" value="" style="endArrow=classic;html=1;rounded=0;entryX=0.088;entryY=0.556;entryDx=0;entryDy=0;exitX=1;exitY=0.5;exitDx=0;exitDy=0;entryPerimeter=0;" edge="1" parent="1" source="qxzenrGqmtoBjBItyft_-17">
          <mxGeometry width="50" height="50" relative="1" as="geometry">
            <mxPoint x="287" y="142" as="sourcePoint" />
            <mxPoint x="420.8800000000001" y="249.46400000000006" as="targetPoint" />
          </mxGeometry>
        </mxCell>
        <mxCell id="qxzenrGqmtoBjBItyft_-31" value="Отправка введенных&lt;div&gt;данных&lt;/div&gt;" style="text;html=1;align=center;verticalAlign=middle;resizable=0;points=[];autosize=1;strokeColor=none;fillColor=none;" parent="1" vertex="1">
          <mxGeometry x="283" y="204.5" width="135" height="41" as="geometry" />
        </mxCell>
        <mxCell id="Fpr4uMqLx5bQpJI8vAxQ-6" value="Удаленное облачное хранилище" style="rounded=0;whiteSpace=wrap;html=1;fillColor=#d5e8d4;strokeColor=#82b366;" vertex="1" parent="1">
          <mxGeometry x="670" y="70" width="90" height="40" as="geometry" />
        </mxCell>
        <mxCell id="Fpr4uMqLx5bQpJI8vAxQ-7" value="" style="endArrow=classic;html=1;rounded=0;exitX=1;exitY=0.5;exitDx=0;exitDy=0;entryX=0;entryY=0.5;entryDx=0;entryDy=0;" edge="1" parent="1" source="qxzenrGqmtoBjBItyft_-20" target="qxzenrGqmtoBjBItyft_-50">
          <mxGeometry width="50" height="50" relative="1" as="geometry">
            <mxPoint x="430" y="246" as="sourcePoint" />
            <mxPoint x="581" y="245" as="targetPoint" />
          </mxGeometry>
        </mxCell>
        <mxCell id="Fpr4uMqLx5bQpJI8vAxQ-8" value="" style="endArrow=none;dashed=1;html=1;rounded=0;" edge="1" parent="1" target="qxzenrGqmtoBjBItyft_-17">
          <mxGeometry width="50" height="50" relative="1" as="geometry">
            <mxPoint x="281" y="362" as="sourcePoint" />
            <mxPoint x="281" y="200" as="targetPoint" />
          </mxGeometry>
        </mxCell>
        <mxCell id="qxzenrGqmtoBjBItyft_-17" value="" style="rounded=0;whiteSpace=wrap;html=1;fillColor=#d5e8d4;strokeColor=#82b366;" parent="1" vertex="1">
          <mxGeometry x="276" y="228" width="10" height="42" as="geometry" />
        </mxCell>
        <mxCell id="Fpr4uMqLx5bQpJI8vAxQ-10" value="" style="endArrow=none;dashed=1;html=1;rounded=0;" edge="1" parent="1" target="Fpr4uMqLx5bQpJI8vAxQ-9">
          <mxGeometry width="50" height="50" relative="1" as="geometry">
            <mxPoint x="425" y="410" as="sourcePoint" />
            <mxPoint x="425" y="290" as="targetPoint" />
          </mxGeometry>
        </mxCell>
        <mxCell id="Fpr4uMqLx5bQpJI8vAxQ-9" value="" style="rounded=0;whiteSpace=wrap;html=1;fillColor=#d5e8d4;strokeColor=#82b366;" vertex="1" parent="1">
          <mxGeometry x="420" y="399" width="10" height="44" as="geometry" />
        </mxCell>
        <mxCell id="Fpr4uMqLx5bQpJI8vAxQ-14" value="" style="endArrow=none;dashed=1;html=1;rounded=0;" edge="1" parent="1" source="Fpr4uMqLx5bQpJI8vAxQ-16">
          <mxGeometry width="50" height="50" relative="1" as="geometry">
            <mxPoint x="717" y="373" as="sourcePoint" />
            <mxPoint x="717" y="110" as="targetPoint" />
          </mxGeometry>
        </mxCell>
        <mxCell id="Fpr4uMqLx5bQpJI8vAxQ-15" value="" style="endArrow=classic;html=1;rounded=0;exitX=0;exitY=0.75;exitDx=0;exitDy=0;entryX=1;entryY=0.75;entryDx=0;entryDy=0;" edge="1" parent="1" source="Fpr4uMqLx5bQpJI8vAxQ-16" target="qxzenrGqmtoBjBItyft_-50">
          <mxGeometry width="50" height="50" relative="1" as="geometry">
            <mxPoint x="430" y="347.29" as="sourcePoint" />
            <mxPoint x="710" y="347" as="targetPoint" />
          </mxGeometry>
        </mxCell>
        <mxCell id="Fpr4uMqLx5bQpJI8vAxQ-17" value="" style="endArrow=none;dashed=1;html=1;rounded=0;" edge="1" parent="1" target="Fpr4uMqLx5bQpJI8vAxQ-16">
          <mxGeometry width="50" height="50" relative="1" as="geometry">
            <mxPoint x="717" y="299" as="sourcePoint" />
            <mxPoint x="717" y="4" as="targetPoint" />
          </mxGeometry>
        </mxCell>
        <mxCell id="Fpr4uMqLx5bQpJI8vAxQ-16" value="" style="rounded=0;whiteSpace=wrap;html=1;fillColor=#d5e8d4;strokeColor=#82b366;" vertex="1" parent="1">
          <mxGeometry x="711" y="210" width="10" height="80" as="geometry" />
        </mxCell>
        <mxCell id="Fpr4uMqLx5bQpJI8vAxQ-19" value="" style="endArrow=classic;html=1;rounded=0;entryX=0;entryY=0.5;entryDx=0;entryDy=0;exitX=1;exitY=0.5;exitDx=0;exitDy=0;" edge="1" parent="1" source="qxzenrGqmtoBjBItyft_-50" target="Fpr4uMqLx5bQpJI8vAxQ-16">
          <mxGeometry width="50" height="50" relative="1" as="geometry">
            <mxPoint x="710" y="363" as="sourcePoint" />
            <mxPoint x="549" y="366" as="targetPoint" />
          </mxGeometry>
        </mxCell>
        <mxCell id="Fpr4uMqLx5bQpJI8vAxQ-22" value="&lt;font style=&quot;font-size: 12px;&quot;&gt;Запросить список&lt;/font&gt;&lt;div&gt;&lt;font style=&quot;font-size: 12px;&quot;&gt;&amp;nbsp;объявлений&lt;/font&gt;&lt;div&gt;&lt;div style=&quot;&quot;&gt;&lt;font style=&quot;font-size: 12px;&quot;&gt;с заданными&lt;/font&gt;&lt;/div&gt;&lt;div style=&quot;&quot;&gt;&lt;font style=&quot;font-size: 12px;&quot;&gt;&amp;nbsp;характеристиками&lt;/font&gt;&lt;/div&gt;&lt;/div&gt;&lt;/div&gt;" style="text;html=1;align=center;verticalAlign=middle;resizable=0;points=[];autosize=1;strokeColor=none;fillColor=none;" vertex="1" parent="1">
          <mxGeometry x="438" y="182" width="123" height="70" as="geometry" />
        </mxCell>
        <mxCell id="Fpr4uMqLx5bQpJI8vAxQ-23" value="Запрос изображения" style="text;html=1;align=center;verticalAlign=middle;resizable=0;points=[];autosize=1;strokeColor=none;fillColor=none;" vertex="1" parent="1">
          <mxGeometry x="576" y="216" width="135" height="26" as="geometry" />
        </mxCell>
        <mxCell id="Fpr4uMqLx5bQpJI8vAxQ-24" value="Возврат изображения" style="text;html=1;align=center;verticalAlign=middle;resizable=0;points=[];autosize=1;strokeColor=none;fillColor=none;" vertex="1" parent="1">
          <mxGeometry x="573.5" y="273" width="140" height="26" as="geometry" />
        </mxCell>
        <mxCell id="Fpr4uMqLx5bQpJI8vAxQ-25" value="" style="endArrow=classic;html=1;rounded=0;exitX=1.024;exitY=0.894;exitDx=0;exitDy=0;entryX=1;entryY=0.5;entryDx=0;entryDy=0;exitPerimeter=0;" edge="1" parent="1" source="qxzenrGqmtoBjBItyft_-20" target="Fpr4uMqLx5bQpJI8vAxQ-9">
          <mxGeometry width="50" height="50" relative="1" as="geometry">
            <mxPoint x="429.29999999999995" y="352.12" as="sourcePoint" />
            <mxPoint x="503" y="350" as="targetPoint" />
            <Array as="points">
              <mxPoint x="451" y="281" />
              <mxPoint x="451" y="352" />
              <mxPoint x="451" y="421" />
            </Array>
          </mxGeometry>
        </mxCell>
        <mxCell id="Fpr4uMqLx5bQpJI8vAxQ-26" value="Отобразить список&amp;nbsp;&lt;div&gt;подходящих&amp;nbsp;&lt;/div&gt;&lt;div&gt;объявлений&lt;/div&gt;" style="text;html=1;align=center;verticalAlign=middle;resizable=0;points=[];autosize=1;strokeColor=none;fillColor=none;" vertex="1" parent="1">
          <mxGeometry x="451" y="334" width="127" height="55" as="geometry" />
        </mxCell>
        <mxCell id="Fpr4uMqLx5bQpJI8vAxQ-27" value="" style="endArrow=classic;html=1;rounded=0;entryX=1;entryY=0.75;entryDx=0;entryDy=0;exitX=0;exitY=0.75;exitDx=0;exitDy=0;" edge="1" parent="1" source="qxzenrGqmtoBjBItyft_-50">
          <mxGeometry width="50" height="50" relative="1" as="geometry">
            <mxPoint x="567" y="270" as="sourcePoint" />
            <mxPoint x="430" y="270" as="targetPoint" />
          </mxGeometry>
        </mxCell>
        <mxCell id="Fpr4uMqLx5bQpJI8vAxQ-28" value="Возврат списка" style="text;html=1;align=center;verticalAlign=middle;resizable=0;points=[];autosize=1;strokeColor=none;fillColor=none;" vertex="1" parent="1">
          <mxGeometry x="454" y="270" width="104" height="26" as="geometry" />
        </mxCell>
      </root>
    </mxGraphModel>
  </diagram>
</mxfile>
